<svg width="997" height="292" viewBox="0 0 997 292" fill="none" xmlns="http://www.w3.org/2000/svg">
<rect x="145.664" width="206" height="206" transform="rotate(45 145.664 0)" fill="#3366FF"/>
<path d="M443.188 163.516C441.922 174.344 437.914 182.711 431.164 188.617C424.461 194.477 415.531 197.406 404.375 197.406C392.281 197.406 382.578 193.07 375.266 184.398C368 175.727 364.367 164.125 364.367 149.594V139.75C364.367 130.234 366.055 121.867 369.43 114.648C372.852 107.43 377.68 101.898 383.914 98.0547C390.148 94.1641 397.367 92.2188 405.57 92.2188C416.445 92.2188 425.164 95.2656 431.727 101.359C438.289 107.406 442.109 115.797 443.188 126.531H429.617C428.445 118.375 425.891 112.469 421.953 108.812C418.062 105.156 412.602 103.328 405.57 103.328C396.945 103.328 390.172 106.516 385.25 112.891C380.375 119.266 377.938 128.336 377.938 140.102V150.016C377.938 161.125 380.258 169.961 384.898 176.523C389.539 183.086 396.031 186.367 404.375 186.367C411.875 186.367 417.617 184.68 421.602 181.305C425.633 177.883 428.305 171.953 429.617 163.516H443.188ZM456.195 157.258C456.195 149.805 457.648 143.102 460.555 137.148C463.508 131.195 467.586 126.602 472.789 123.367C478.039 120.133 484.016 118.516 490.719 118.516C501.078 118.516 509.445 122.102 515.82 129.273C522.242 136.445 525.453 145.984 525.453 157.891V158.805C525.453 166.211 524.023 172.867 521.164 178.773C518.352 184.633 514.297 189.203 509 192.484C503.75 195.766 497.703 197.406 490.859 197.406C480.547 197.406 472.18 193.82 465.758 186.648C459.383 179.477 456.195 169.984 456.195 158.172V157.258ZM469.273 158.805C469.273 167.242 471.219 174.016 475.109 179.125C479.047 184.234 484.297 186.789 490.859 186.789C497.469 186.789 502.719 184.211 506.609 179.055C510.5 173.852 512.445 166.586 512.445 157.258C512.445 148.914 510.453 142.164 506.469 137.008C502.531 131.805 497.281 129.203 490.719 129.203C484.297 129.203 479.117 131.758 475.18 136.867C471.242 141.977 469.273 149.289 469.273 158.805ZM538.602 157.328C538.602 145.656 541.367 136.281 546.898 129.203C552.43 122.078 559.672 118.516 568.625 118.516C577.531 118.516 584.586 121.562 589.789 127.656V88H602.797V196H590.844L590.211 187.844C585.008 194.219 577.766 197.406 568.484 197.406C559.672 197.406 552.477 193.797 546.898 186.578C541.367 179.359 538.602 169.938 538.602 158.312V157.328ZM551.609 158.805C551.609 167.43 553.391 174.18 556.953 179.055C560.516 183.93 565.438 186.367 571.719 186.367C579.969 186.367 585.992 182.664 589.789 175.258V140.312C585.898 133.141 579.922 129.555 571.859 129.555C565.484 129.555 560.516 132.016 556.953 136.938C553.391 141.859 551.609 149.148 551.609 158.805ZM654.617 197.406C644.305 197.406 635.914 194.031 629.445 187.281C622.977 180.484 619.742 171.414 619.742 160.07V157.68C619.742 150.133 621.172 143.406 624.031 137.5C626.938 131.547 630.969 126.906 636.125 123.578C641.328 120.203 646.953 118.516 653 118.516C662.891 118.516 670.578 121.773 676.062 128.289C681.547 134.805 684.289 144.133 684.289 156.273V161.688H632.75C632.938 169.188 635.117 175.258 639.289 179.898C643.508 184.492 648.852 186.789 655.32 186.789C659.914 186.789 663.805 185.852 666.992 183.977C670.18 182.102 672.969 179.617 675.359 176.523L683.305 182.711C676.93 192.508 667.367 197.406 654.617 197.406ZM653 129.203C647.75 129.203 643.344 131.125 639.781 134.969C636.219 138.766 634.016 144.109 633.172 151H671.281V150.016C670.906 143.406 669.125 138.297 665.938 134.688C662.75 131.031 658.438 129.203 653 129.203ZM763.672 158.805C763.672 170.383 761.023 179.711 755.727 186.789C750.43 193.867 743.258 197.406 734.211 197.406C724.977 197.406 717.711 194.477 712.414 188.617V225.25H699.406V119.922H711.289L711.922 128.359C717.219 121.797 724.578 118.516 734 118.516C743.141 118.516 750.359 121.961 755.656 128.852C761 135.742 763.672 145.328 763.672 157.609V158.805ZM750.664 157.328C750.664 148.75 748.836 141.977 745.18 137.008C741.523 132.039 736.508 129.555 730.133 129.555C722.258 129.555 716.352 133.047 712.414 140.031V176.383C716.305 183.32 722.258 186.789 730.273 186.789C736.508 186.789 741.453 184.328 745.109 179.406C748.812 174.438 750.664 167.078 750.664 157.328ZM793.273 129.133C799.039 122.055 806.539 118.516 815.773 118.516C831.852 118.516 839.961 127.586 840.102 145.727V196H827.094V145.656C827.047 140.172 825.781 136.117 823.297 133.492C820.859 130.867 817.039 129.555 811.836 129.555C807.617 129.555 803.914 130.68 800.727 132.93C797.539 135.18 795.055 138.133 793.273 141.789V196H780.266V88H793.273V129.133ZM873.711 196H860.703V119.922H873.711V196ZM859.648 99.7422C859.648 97.6328 860.281 95.8516 861.547 94.3984C862.859 92.9453 864.781 92.2188 867.312 92.2188C869.844 92.2188 871.766 92.9453 873.078 94.3984C874.391 95.8516 875.047 97.6328 875.047 99.7422C875.047 101.852 874.391 103.609 873.078 105.016C871.766 106.422 869.844 107.125 867.312 107.125C864.781 107.125 862.859 106.422 861.547 105.016C860.281 103.609 859.648 101.852 859.648 99.7422ZM908.727 196H895.719V88H908.727V196ZM961.18 197.406C950.867 197.406 942.477 194.031 936.008 187.281C929.539 180.484 926.305 171.414 926.305 160.07V157.68C926.305 150.133 927.734 143.406 930.594 137.5C933.5 131.547 937.531 126.906 942.688 123.578C947.891 120.203 953.516 118.516 959.562 118.516C969.453 118.516 977.141 121.773 982.625 128.289C988.109 134.805 990.852 144.133 990.852 156.273V161.688H939.312C939.5 169.188 941.68 175.258 945.852 179.898C950.07 184.492 955.414 186.789 961.883 186.789C966.477 186.789 970.367 185.852 973.555 183.977C976.742 182.102 979.531 179.617 981.922 176.523L989.867 182.711C983.492 192.508 973.93 197.406 961.18 197.406ZM959.562 129.203C954.312 129.203 949.906 131.125 946.344 134.969C942.781 138.766 940.578 144.109 939.734 151H977.844V150.016C977.469 143.406 975.688 138.297 972.5 134.688C969.312 131.031 965 129.203 959.562 129.203Z" fill="#2C363F"/>
</svg>
