<svg width="24" height="24" viewBox="0 0 24 24" fill="none" xmlns="http://www.w3.org/2000/svg">
<path fill-rule="evenodd" clip-rule="evenodd" d="M14.3291 20.0005C14.2621 20.0005 14.1931 19.9975 14.1241 19.9905C13.2441 19.9035 12.5541 19.2825 12.3641 18.4075L9.68112 6.01555L6.91812 12.3975C6.75912 12.7635 6.39812 13.0005 6.00012 13.0005H3.00012C2.44712 13.0005 2.00012 12.5525 2.00012 12.0005C2.00012 11.4475 2.44712 11.0005 3.00012 11.0005H5.34412L7.85012 5.21155C8.20512 4.39555 8.98712 3.92055 9.87612 4.00955C10.7561 4.09655 11.4461 4.71755 11.6361 5.59255L14.3191 17.9845L17.0821 11.6025C17.2411 11.2365 17.6011 11.0005 18.0001 11.0005H21.0001C21.5531 11.0005 22.0001 11.4475 22.0001 12.0005C22.0001 12.5525 21.5531 13.0005 21.0001 13.0005H18.6561L16.1501 18.7885C15.8231 19.5415 15.1221 20.0005 14.3291 20.0005Z" fill="#231F20"/>
<mask id="mask0" mask-type="alpha" maskUnits="userSpaceOnUse" x="2" y="3" width="21" height="18">
<path fill-rule="evenodd" clip-rule="evenodd" d="M14.3291 20.0005C14.2621 20.0005 14.1931 19.9975 14.1241 19.9905C13.2441 19.9035 12.5541 19.2825 12.3641 18.4075L9.68112 6.01555L6.91812 12.3975C6.75912 12.7635 6.39812 13.0005 6.00012 13.0005H3.00012C2.44712 13.0005 2.00012 12.5525 2.00012 12.0005C2.00012 11.4475 2.44712 11.0005 3.00012 11.0005H5.34412L7.85012 5.21155C8.20512 4.39555 8.98712 3.92055 9.87612 4.00955C10.7561 4.09655 11.4461 4.71755 11.6361 5.59255L14.3191 17.9845L17.0821 11.6025C17.2411 11.2365 17.6011 11.0005 18.0001 11.0005H21.0001C21.5531 11.0005 22.0001 11.4475 22.0001 12.0005C22.0001 12.5525 21.5531 13.0005 21.0001 13.0005H18.6561L16.1501 18.7885C15.8231 19.5415 15.1221 20.0005 14.3291 20.0005Z" fill="white"/>
</mask>
<g mask="url(#mask0)">
<rect width="24" height="24" fill="#979797"/>
</g>
</svg>
