<svg width="8" height="10" viewBox="0 0 8 10" fill="none" xmlns="http://www.w3.org/2000/svg">
    <path fill-rule="evenodd" clip-rule="evenodd" d="M4.15278 7.35352C3.99728 7.26802 3.80928 7.26952 3.65778 7.36002L1.78378 8.46002L2.51778 5.60502C2.95528 5.85502 3.46078 6.00002 3.99978 6.00002C4.53878 6.00002 5.04428 5.85502 5.48228 5.60502L6.22678 8.50102L4.15278 7.35352ZM3.99996 1C5.10296 1 5.99996 1.897 5.99996 3C5.99996 4.103 5.10296 5 3.99996 5C2.89696 5 1.99996 4.103 1.99996 3C1.99996 1.897 2.89696 1 3.99996 1ZM7.48436 9.3755L6.32986 4.886C6.74786 4.37 6.99986 3.7145 6.99986 3C6.99986 1.3455 5.65436 0 3.99986 0C2.34586 0 0.999858 1.3455 0.999858 3C0.999858 3.7145 1.25186 4.37 1.66986 4.886L0.515858 9.3755C0.465358 9.5715 0.537858 9.778 0.699358 9.8995C0.860358 10.021 1.07936 10.032 1.25286 9.931L3.91786 8.3665L6.75786 9.9375C6.83336 9.9795 6.91686 10 6.99986 10C7.10836 10 7.21636 9.965 7.30636 9.8955C7.46386 9.7735 7.53436 9.569 7.48436 9.3755Z" fill="#231F20"/>
</svg>
