<svg width="205" height="238" viewBox="0 0 205 238" fill="none" xmlns="http://www.w3.org/2000/svg">
<ellipse rx="3.13395" ry="4.47707" transform="matrix(-0.821285 0.570518 0.570518 0.821285 50.7474 7.21022)" fill="#242424"/>
<ellipse rx="3.13395" ry="1.36809" transform="matrix(-0.738434 0.674326 0.674326 0.738434 52.9642 3.97346)" fill="#F3F4F7"/>
<ellipse rx="3.13395" ry="1.33627" transform="matrix(-0.992755 -0.120157 -0.120157 0.992755 47.1301 5.63801)" fill="#F3F4F7"/>
<path d="M144.368 198.02C135.414 210.833 103.224 204.046 103.224 204.046L78.278 180.703L74.9202 177.542L80.5523 165.579C80.5523 165.579 82.3431 166.072 85.4144 166.949C101.541 171.632 151.926 187.248 144.368 198.02Z" fill="#EFB7B9"/>
<path opacity="0.1" d="M85.3965 166.949C84.2952 170.781 81.2776 176.521 78.278 180.703L74.9202 177.542L80.5523 165.579C80.5523 165.579 82.3611 166.072 85.3965 166.949Z" fill="black"/>
<path d="M25.8425 143.024L94.7893 131.804V197.08L29.2809 193.65L25.8425 143.024Z" fill="#3366FF"/>
<path d="M120.21 111.881L94.7893 131.804L177.472 137.991L190.984 117.603L120.21 111.881Z" fill="#3366FF"/>
<path opacity="0.05" d="M25.8425 143.024L94.7893 131.804V197.08L29.2809 193.65L25.8425 143.024Z" fill="black"/>
<path d="M94.7893 131.804L177.472 137.991L172.896 194.796L94.7893 197.08V131.804Z" fill="#3366FF"/>
<path d="M104.7 156.246C118.131 147.889 140.964 121.146 124.847 81.0314C104.7 30.8883 53.6614 48.7966 46.4981 52.8259C39.3348 56.8553 21.4265 69.8388 38.4393 85.5085C55.4522 101.178 91.2687 64.4663 68.8834 30.8883C65.9142 25.8003 59.3489 15.266 56.8418 13.8334" stroke="#979797" stroke-width="0.895413" stroke-dasharray="4.48 4.48"/>
<path opacity="0.1" d="M94.7893 131.804L177.472 137.991L172.896 194.796L94.7893 197.08V131.804Z" fill="black"/>
<path d="M0.878418 121.265L62.9485 113.708L94.7894 131.804L25.8425 143.024L0.878418 121.265Z" fill="#3366FF"/>
<path d="M109.904 148.754V238L77.6064 234.687L63.5573 233.254L59.2773 232.807L45.2372 231.365L25.8425 229.377V143.024L94.7804 147.716L109.904 148.754Z" fill="#3366FF"/>
<path d="M177.472 137.991V225.025L151.585 229.995L138.996 232.413L109.904 238V148.754L177.472 137.991Z" fill="#3366FF"/>
<path opacity="0.05" d="M177.472 137.991V225.025L151.585 229.995L138.996 232.413L109.904 238V148.754L177.472 137.991Z" fill="black"/>
<path d="M0.878418 161.809L25.8425 143.024L109.904 148.754L97.5293 169.599L0.878418 161.809Z" fill="#3366FF"/>
<path opacity="0.1" d="M0.878418 161.809L25.8425 143.024L109.904 148.754L97.5293 169.599L0.878418 161.809Z" fill="white"/>
<path d="M177.472 137.991L109.904 148.754L131.895 168.453L204.272 156.312L177.472 137.991Z" fill="#3366FF"/>
<path opacity="0.1" d="M177.472 137.991L109.904 148.754L131.895 168.453L204.272 156.312L177.472 137.991Z" fill="white"/>
<path opacity="0.1" d="M151.586 229.995L138.996 232.413V213.815L150.789 210.842L151.586 229.995Z" fill="white"/>
<path opacity="0.1" d="M77.6064 222.384V234.687L63.5574 233.254V222.384H77.6064Z" fill="white"/>
<path opacity="0.1" d="M59.2774 226.261V232.807L45.2373 231.365V226.261H59.2774Z" fill="white"/>
</svg>
