<svg width="24" height="24" viewBox="0 0 24 24" fill="none" xmlns="http://www.w3.org/2000/svg">
<path fill-rule="evenodd" clip-rule="evenodd" d="M12 13.4998C11.173 13.4998 10.5 12.8268 10.5 11.9998C10.5 11.9867 10.5031 11.9739 10.5061 11.9611L10.5061 11.961C10.5088 11.9494 10.5116 11.9377 10.512 11.9258L12.074 13.4878C12.0621 13.4882 12.0504 13.491 12.0388 13.4937C12.0259 13.4968 12.0131 13.4998 12 13.4998ZM4.70705 3.29276C4.31605 2.90176 3.68405 2.90176 3.29305 3.29276C2.90205 3.68376 2.90205 4.31576 3.29305 4.70676L8.92305 10.3368C8.64705 10.8458 8.50005 11.4108 8.50005 11.9998C8.50005 13.9298 10.0701 15.4998 12 15.4998C12.5891 15.4998 13.154 15.3528 13.663 15.0768L19.293 20.7068C19.488 20.9018 19.744 20.9998 20 20.9998C20.2561 20.9998 20.5121 20.9018 20.7071 20.7068C21.0981 20.3158 21.0981 19.6838 20.7071 19.2928L4.70705 3.29276ZM12.2198 16.9974C7.91475 17.0974 5.10475 13.4144 4.17275 11.9954C4.62975 11.2814 5.39575 10.2354 6.45575 9.28436L5.04475 7.87236C3.52275 9.26136 2.54675 10.7794 2.13275 11.5024C1.95575 11.8104 1.95575 12.1894 2.13275 12.4974C2.76175 13.5944 6.16175 18.9994 12.0247 18.9994C12.1067 18.9994 12.1888 18.9984 12.2708 18.9964C13.4548 18.9664 14.5268 18.7104 15.4978 18.3264L13.9178 16.7464C13.3828 16.8884 12.8198 16.9824 12.2198 16.9974ZM11.7297 5.00316C17.7048 4.81616 21.2297 10.3902 21.8678 11.5022C22.0438 11.8102 22.0438 12.1892 21.8678 12.4972C21.4527 13.2202 20.4767 14.7382 18.9548 16.1272L17.5437 14.7152C18.6038 13.7642 19.3708 12.7182 19.8267 12.0042C18.8948 10.5852 16.0717 6.89416 11.7808 7.00216C11.1807 7.01716 10.6178 7.11116 10.0817 7.25316L8.50175 5.67316C9.47375 5.28916 10.5448 5.03316 11.7297 5.00316Z" fill="#231F20"/>
<mask id="mask0" mask-type="alpha" maskUnits="userSpaceOnUse" x="2" y="2" width="20" height="19">
<path fill-rule="evenodd" clip-rule="evenodd" d="M12 13.4998C11.173 13.4998 10.5 12.8268 10.5 11.9998C10.5 11.9867 10.5031 11.9739 10.5061 11.9611L10.5061 11.961C10.5088 11.9494 10.5116 11.9377 10.512 11.9258L12.074 13.4878C12.0621 13.4882 12.0504 13.491 12.0388 13.4937C12.0259 13.4968 12.0131 13.4998 12 13.4998ZM4.70705 3.29276C4.31605 2.90176 3.68405 2.90176 3.29305 3.29276C2.90205 3.68376 2.90205 4.31576 3.29305 4.70676L8.92305 10.3368C8.64705 10.8458 8.50005 11.4108 8.50005 11.9998C8.50005 13.9298 10.0701 15.4998 12 15.4998C12.5891 15.4998 13.154 15.3528 13.663 15.0768L19.293 20.7068C19.488 20.9018 19.744 20.9998 20 20.9998C20.2561 20.9998 20.5121 20.9018 20.7071 20.7068C21.0981 20.3158 21.0981 19.6838 20.7071 19.2928L4.70705 3.29276ZM12.2198 16.9974C7.91475 17.0974 5.10475 13.4144 4.17275 11.9954C4.62975 11.2814 5.39575 10.2354 6.45575 9.28436L5.04475 7.87236C3.52275 9.26136 2.54675 10.7794 2.13275 11.5024C1.95575 11.8104 1.95575 12.1894 2.13275 12.4974C2.76175 13.5944 6.16175 18.9994 12.0247 18.9994C12.1067 18.9994 12.1888 18.9984 12.2708 18.9964C13.4548 18.9664 14.5268 18.7104 15.4978 18.3264L13.9178 16.7464C13.3828 16.8884 12.8198 16.9824 12.2198 16.9974ZM11.7297 5.00316C17.7048 4.81616 21.2297 10.3902 21.8678 11.5022C22.0438 11.8102 22.0438 12.1892 21.8678 12.4972C21.4527 13.2202 20.4767 14.7382 18.9548 16.1272L17.5437 14.7152C18.6038 13.7642 19.3708 12.7182 19.8267 12.0042C18.8948 10.5852 16.0717 6.89416 11.7808 7.00216C11.1807 7.01716 10.6178 7.11116 10.0817 7.25316L8.50175 5.67316C9.47375 5.28916 10.5448 5.03316 11.7297 5.00316Z" fill="white"/>
</mask>
<g mask="url(#mask0)">
<rect width="24" height="24" fill="#0D1C2E"/>
</g>
</svg>
