<svg width="24" height="24" viewBox="0 0 24 24" fill="none" xmlns="http://www.w3.org/2000/svg">
<path fill-rule="evenodd" clip-rule="evenodd" d="M13.9034 22C13.6894 22 13.4774 21.932 13.3004 21.797L9.27438 18.752C9.02438 18.563 8.87738 18.268 8.87738 17.955V13.681L3.11138 4.459C2.95138 4.149 2.96438 3.778 3.14638 3.48C3.32738 3.182 3.65138 3 4.00038 3H20.0004C20.3524 3 20.6784 3.185 20.8594 3.488C21.0394 3.79 21.0474 4.166 20.8804 4.475L14.9034 13.69V21C14.9034 21.379 14.6884 21.726 14.3484 21.896C14.2074 21.965 14.0554 22 13.9034 22Z" fill="#242424"/>
</svg>
