<svg width="24" height="24" viewBox="0 0 24 24" fill="none" xmlns="http://www.w3.org/2000/svg">
<path d="M9 5.9C10.16 5.9 11.1 6.84 11.1 8C11.1 9.16 10.16 10.1 9 10.1C7.84 10.1 6.9 9.16 6.9 8C6.9 6.84 7.84 5.9 9 5.9ZM9 14.9C11.97 14.9 15.1 16.36 15.1 17V18.1H2.9V17C2.9 16.36 6.03 14.9 9 14.9ZM9 4C6.79 4 5 5.79 5 8C5 10.21 6.79 12 9 12C11.21 12 13 10.21 13 8C13 5.79 11.21 4 9 4ZM9 13C6.33 13 1 14.34 1 17V20H17V17C17 14.34 11.67 13 9 13Z" fill="#3366FF"/>
<path fill-rule="evenodd" clip-rule="evenodd" d="M20 7H18V10H15V12H18V15H20V12H23V10H20V7Z" fill="#3366FF"/>
</svg>
