<svg width="24" height="24" viewBox="0 0 24 24" fill="none" xmlns="http://www.w3.org/2000/svg">
<path fill-rule="evenodd" clip-rule="evenodd" d="M20.3032 13.4258C19.7772 13.2588 19.2152 13.5498 19.0472 14.0758C18.1102 17.0218 15.3522 18.9998 12.1842 18.9998C8.22218 18.9998 5.00018 15.8598 5.00018 11.9998C5.00018 8.14082 8.22218 4.99982 12.1842 4.99982C13.9122 4.99982 15.5422 5.60182 16.8292 6.66982L14.6632 6.31282C14.1132 6.21282 13.6032 6.59182 13.5132 7.13582C13.4232 7.68082 13.7922 8.19582 14.3372 8.28482L18.5832 8.98682C18.6382 8.99582 18.6942 8.99982 18.7472 8.99982C18.8662 8.99982 18.9822 8.97882 19.0902 8.93882C19.1272 8.92482 19.1572 8.89882 19.1932 8.87982C19.2592 8.84582 19.3282 8.81582 19.3852 8.76782C19.4212 8.73882 19.4442 8.69682 19.4752 8.66282C19.5222 8.61382 19.5722 8.56682 19.6072 8.50682C19.6322 8.46382 19.6422 8.41282 19.6612 8.36482C19.6852 8.30582 19.7172 8.25082 19.7292 8.18582L20.4832 4.18582C20.5852 3.64282 20.2282 3.11882 19.6852 3.01782C19.1442 2.91982 18.6192 3.27282 18.5172 3.81482L18.2452 5.25582C16.5812 3.81482 14.4482 2.99982 12.1842 2.99982C7.12018 2.99982 3.00018 7.03682 3.00018 11.9998C3.00018 16.9628 7.12018 20.9998 12.1842 20.9998C16.2262 20.9998 19.7502 18.4608 20.9532 14.6818C21.1202 14.1558 20.8292 13.5938 20.3032 13.4258Z" fill="#242424"/>
<mask id="mask0" mask-type="alpha" maskUnits="userSpaceOnUse" x="3" y="2" width="19" height="19">
<path fill-rule="evenodd" clip-rule="evenodd" d="M20.3032 13.4258C19.7772 13.2588 19.2152 13.5498 19.0472 14.0758C18.1102 17.0218 15.3522 18.9998 12.1842 18.9998C8.22218 18.9998 5.00018 15.8598 5.00018 11.9998C5.00018 8.14082 8.22218 4.99982 12.1842 4.99982C13.9122 4.99982 15.5422 5.60182 16.8292 6.66982L14.6632 6.31282C14.1132 6.21282 13.6032 6.59182 13.5132 7.13582C13.4232 7.68082 13.7922 8.19582 14.3372 8.28482L18.5832 8.98682C18.6382 8.99582 18.6942 8.99982 18.7472 8.99982C18.8662 8.99982 18.9822 8.97882 19.0902 8.93882C19.1272 8.92482 19.1572 8.89882 19.1932 8.87982C19.2592 8.84582 19.3282 8.81582 19.3852 8.76782C19.4212 8.73882 19.4442 8.69682 19.4752 8.66282C19.5222 8.61382 19.5722 8.56682 19.6072 8.50682C19.6322 8.46382 19.6422 8.41282 19.6612 8.36482C19.6852 8.30582 19.7172 8.25082 19.7292 8.18582L20.4832 4.18582C20.5852 3.64282 20.2282 3.11882 19.6852 3.01782C19.1442 2.91982 18.6192 3.27282 18.5172 3.81482L18.2452 5.25582C16.5812 3.81482 14.4482 2.99982 12.1842 2.99982C7.12018 2.99982 3.00018 7.03682 3.00018 11.9998C3.00018 16.9628 7.12018 20.9998 12.1842 20.9998C16.2262 20.9998 19.7502 18.4608 20.9532 14.6818C21.1202 14.1558 20.8292 13.5938 20.3032 13.4258Z" fill="white"/>
</mask>
<g mask="url(#mask0)">
<rect width="24" height="24" fill="#242424"/>
</g>
</svg>
