<svg width="24" height="24" viewBox="0 0 24 24" fill="none" xmlns="http://www.w3.org/2000/svg">
<path fill-rule="evenodd" clip-rule="evenodd" d="M16.2951 9.60546L11.7271 15.6055C11.5391 15.8525 11.2481 15.9985 10.9381 16.0005H10.9311C10.6241 16.0005 10.3341 15.8585 10.1441 15.6165L7.71208 12.5095C7.37208 12.0755 7.44808 11.4465 7.88308 11.1065C8.31708 10.7655 8.94708 10.8415 9.28708 11.2775L10.9201 13.3635L14.7041 8.39446C15.0381 7.95546 15.6651 7.86946 16.1061 8.20446C16.5451 8.53946 16.6301 9.16646 16.2951 9.60546ZM12.0005 2.00052C6.47749 2.00052 2.00049 6.47752 2.00049 12.0005C2.00049 17.5225 6.47749 22.0005 12.0005 22.0005C17.5235 22.0005 22.0005 17.5225 22.0005 12.0005C22.0005 6.47752 17.5235 2.00052 12.0005 2.00052Z" fill="#231F20"/>
<mask id="mask0" mask-type="alpha" maskUnits="userSpaceOnUse" x="2" y="2" width="21" height="21">
<path fill-rule="evenodd" clip-rule="evenodd" d="M16.2951 9.60546L11.7271 15.6055C11.5391 15.8525 11.2481 15.9985 10.9381 16.0005H10.9311C10.6241 16.0005 10.3341 15.8585 10.1441 15.6165L7.71208 12.5095C7.37208 12.0755 7.44808 11.4465 7.88308 11.1065C8.31708 10.7655 8.94708 10.8415 9.28708 11.2775L10.9201 13.3635L14.7041 8.39446C15.0381 7.95546 15.6651 7.86946 16.1061 8.20446C16.5451 8.53946 16.6301 9.16646 16.2951 9.60546ZM12.0005 2.00052C6.47749 2.00052 2.00049 6.47752 2.00049 12.0005C2.00049 17.5225 6.47749 22.0005 12.0005 22.0005C17.5235 22.0005 22.0005 17.5225 22.0005 12.0005C22.0005 6.47752 17.5235 2.00052 12.0005 2.00052Z" fill="white"/>
</mask>
<g mask="url(#mask0)">
<rect width="24" height="24" fill="#3366FF"/>
</g>
</svg>
