<svg width="18" height="16" viewBox="0 0 18 16" fill="none" xmlns="http://www.w3.org/2000/svg">
<path fill-rule="evenodd" clip-rule="evenodd" d="M1.39145 9.087L14.2882 9.087L10.3393 13.8261C9.9545 14.287 10.0175 14.9729 10.4784 15.3566C10.9404 15.7413 11.6251 15.6783 12.0088 15.2174L17.4436 8.6957C17.486 8.64461 17.5078 8.58483 17.5393 8.52831C17.5654 8.48265 17.5969 8.44352 17.6165 8.39352C17.6654 8.26852 17.6947 8.137 17.6947 8.00439C17.6947 8.00331 17.6958 8.00113 17.6958 8.00005C17.6958 7.99896 17.6947 7.99678 17.6947 7.9957C17.6947 7.86309 17.6654 7.73157 17.6165 7.60657C17.5969 7.55657 17.5654 7.51744 17.5393 7.47178C17.5078 7.41526 17.486 7.35548 17.4436 7.30439L12.0088 0.782653C11.7936 0.525044 11.4849 0.391348 11.1741 0.391348C10.9284 0.391348 10.6817 0.473957 10.4784 0.643522C10.0175 1.02722 9.9545 1.71309 10.3393 2.17396L14.2882 6.91309L1.39145 6.91309C0.791454 6.91309 0.304497 7.40004 0.304497 8.00004C0.304497 8.60004 0.791454 9.087 1.39145 9.087" fill="#231F20"/>
</svg>
