<svg width="104" height="104" viewBox="0 0 104 104" fill="none" xmlns="http://www.w3.org/2000/svg">
    <path fill-rule="evenodd" clip-rule="evenodd" d="M60.5556 30.6111C60.5556 25.8927 56.7184 22.0556 52 22.0556C47.2817 22.0556 43.4445 25.8927 43.4445 30.6111C43.4445 35.3295 47.2817 39.1667 52 39.1667C56.7184 39.1667 60.5556 35.3295 60.5556 30.6111ZM69.1112 30.6111C69.1112 40.0479 61.4368 47.7222 52 47.7222C42.5633 47.7222 34.8889 40.0479 34.8889 30.6111C34.8889 21.1743 42.5633 13.5 52 13.5C61.4368 13.5 69.1112 21.1743 69.1112 30.6111ZM22.0556 86.2222C22.0556 69.71 35.4921 56.2778 52 56.2778C68.508 56.2778 81.9445 69.71 81.9445 86.2222C81.9445 88.5835 80.0323 90.5 77.6667 90.5C75.3011 90.5 73.3889 88.5835 73.3889 86.2222C73.3889 74.4284 63.7939 64.8333 52 64.8333C40.2062 64.8333 30.6112 74.4284 30.6112 86.2222C30.6112 88.5835 28.699 90.5 26.3334 90.5C23.9678 90.5 22.0556 88.5835 22.0556 86.2222Z" fill="#231F20"/>
    <mask id="mask0" mask-type="alpha" maskUnits="userSpaceOnUse" x="22" y="13" width="60" height="78">
        <path fill-rule="evenodd" clip-rule="evenodd" d="M60.5556 30.6111C60.5556 25.8927 56.7184 22.0556 52 22.0556C47.2817 22.0556 43.4445 25.8927 43.4445 30.6111C43.4445 35.3295 47.2817 39.1667 52 39.1667C56.7184 39.1667 60.5556 35.3295 60.5556 30.6111ZM69.1112 30.6111C69.1112 40.0479 61.4368 47.7222 52 47.7222C42.5633 47.7222 34.8889 40.0479 34.8889 30.6111C34.8889 21.1743 42.5633 13.5 52 13.5C61.4368 13.5 69.1112 21.1743 69.1112 30.6111ZM22.0556 86.2222C22.0556 69.71 35.4921 56.2778 52 56.2778C68.508 56.2778 81.9445 69.71 81.9445 86.2222C81.9445 88.5835 80.0323 90.5 77.6667 90.5C75.3011 90.5 73.3889 88.5835 73.3889 86.2222C73.3889 74.4284 63.7939 64.8333 52 64.8333C40.2062 64.8333 30.6112 74.4284 30.6112 86.2222C30.6112 88.5835 28.699 90.5 26.3334 90.5C23.9678 90.5 22.0556 88.5835 22.0556 86.2222Z" fill="white"/>
    </mask>
    <g mask="url(#mask0)">
        <rect x="0.666687" y="0.666504" width="102.667" height="102.667" fill="#979797"/>
    </g>
</svg>
