<svg width="12" height="12" viewBox="0 0 12 12" fill="none" xmlns="http://www.w3.org/2000/svg">
    <path fill-rule="evenodd" clip-rule="evenodd" d="M5.99982 7H4.49982C4.22382 7 3.99982 6.776 3.99982 6.5C3.99982 6.224 4.22382 6 4.49982 6H5.99982C6.27582 6 6.49982 6.224 6.49982 6.5C6.49982 6.776 6.27582 7 5.99982 7ZM3.99982 8.5C3.99982 8.224 4.22382 8 4.49982 8H7.49982C7.77632 8 7.99982 8.224 7.99982 8.5C7.99982 8.776 7.77632 9 7.49982 9H4.49982C4.22382 9 3.99982 8.776 3.99982 8.5ZM8.722 10H3.2775C3.1245 10 3 9.888 3 9.75V2.25C3 2.112 3.1245 2 3.2775 2H6V3.575C6 4.361 6.6085 5 7.357 5H9V9.75C9 9.888 8.8755 10 8.722 10ZM7 2.48899L8.371 3.99999H7.357C7.16 3.99999 7 3.80949 7 3.57499V2.48899ZM9.87 4.164L7.148 1.164C7.053 1.0595 6.919 1 6.7775 1H3.2775C2.573 1 2 1.561 2 2.25V9.75C2 10.439 2.573 11 3.2775 11H8.722C9.4265 11 10 10.439 10 9.75V4.5C10 4.3755 9.9535 4.256 9.87 4.164Z" fill="#231F20"/>
    <mask id="mask0" mask-type="alpha" maskUnits="userSpaceOnUse" x="2" y="1" width="8" height="10">
        <path fill-rule="evenodd" clip-rule="evenodd" d="M5.99982 7H4.49982C4.22382 7 3.99982 6.776 3.99982 6.5C3.99982 6.224 4.22382 6 4.49982 6H5.99982C6.27582 6 6.49982 6.224 6.49982 6.5C6.49982 6.776 6.27582 7 5.99982 7ZM3.99982 8.5C3.99982 8.224 4.22382 8 4.49982 8H7.49982C7.77632 8 7.99982 8.224 7.99982 8.5C7.99982 8.776 7.77632 9 7.49982 9H4.49982C4.22382 9 3.99982 8.776 3.99982 8.5ZM8.722 10H3.2775C3.1245 10 3 9.888 3 9.75V2.25C3 2.112 3.1245 2 3.2775 2H6V3.575C6 4.361 6.6085 5 7.357 5H9V9.75C9 9.888 8.8755 10 8.722 10ZM7 2.48899L8.371 3.99999H7.357C7.16 3.99999 7 3.80949 7 3.57499V2.48899ZM9.87 4.164L7.148 1.164C7.053 1.0595 6.919 1 6.7775 1H3.2775C2.573 1 2 1.561 2 2.25V9.75C2 10.439 2.573 11 3.2775 11H8.722C9.4265 11 10 10.439 10 9.75V4.5C10 4.3755 9.9535 4.256 9.87 4.164Z" fill="white"/>
    </mask>
    <g mask="url(#mask0)">
        <rect width="12" height="12" fill="#3366FF"/>
    </g>
</svg>
