<svg width="18" height="18" viewBox="0 0 18 18" fill="none" xmlns="http://www.w3.org/2000/svg">
<path fill-rule="evenodd" clip-rule="evenodd" d="M10.5 13.756C10.5 14.4303 9.813 15.0003 9 15.0003C8.187 15.0003 7.5 14.4303 7.5 13.756V13.5003H10.5V13.756ZM15.3907 11.4055L14.04 10.0533V6.70226C14.04 4.09151 12.1635 1.87451 9.67423 1.54451C8.23348 1.35326 6.77848 1.79275 5.68723 2.74976C4.58923 3.71125 3.95998 5.09501 3.95998 6.54551L3.95923 10.0533L2.60923 11.4063C2.25748 11.758 2.15323 12.283 2.34373 12.7428C2.53498 13.2025 2.97973 13.5003 3.47773 13.5003H5.99998V13.756C5.99998 15.2695 7.34548 16.5003 8.99998 16.5003C10.6545 16.5003 12 15.2695 12 13.756V13.5003H14.5215C15.0195 13.5003 15.4642 13.2033 15.6547 12.7428C15.846 12.283 15.7417 11.758 15.3907 11.4055Z" fill="#231F20"/>
<mask id="mask0" mask-type="alpha" maskUnits="userSpaceOnUse" x="2" y="1" width="14" height="16">
<path fill-rule="evenodd" clip-rule="evenodd" d="M10.5 13.756C10.5 14.4303 9.813 15.0003 9 15.0003C8.187 15.0003 7.5 14.4303 7.5 13.756V13.5003H10.5V13.756ZM15.3907 11.4055L14.04 10.0533V6.70226C14.04 4.09151 12.1635 1.87451 9.67423 1.54451C8.23348 1.35326 6.77848 1.79275 5.68723 2.74976C4.58923 3.71125 3.95998 5.09501 3.95998 6.54551L3.95923 10.0533L2.60923 11.4063C2.25748 11.758 2.15323 12.283 2.34373 12.7428C2.53498 13.2025 2.97973 13.5003 3.47773 13.5003H5.99998V13.756C5.99998 15.2695 7.34548 16.5003 8.99998 16.5003C10.6545 16.5003 12 15.2695 12 13.756V13.5003H14.5215C15.0195 13.5003 15.4642 13.2033 15.6547 12.7428C15.846 12.283 15.7417 11.758 15.3907 11.4055Z" fill="white"/>
</mask>
<g mask="url(#mask0)">
<rect width="18" height="18" fill="#3366FF"/>
</g>
</svg>
